<svg width="190" height="190" viewBox="0 0 190 190" fill="none" xmlns="http://www.w3.org/2000/svg">
<rect x="10" y="10" width="5" height="5" rx="2.5" fill="#DDDDDD"/>
<rect x="30" y="10" width="5" height="5" rx="2.5" fill="#DDDDDD"/>
<rect x="50" y="10" width="5" height="5" rx="2.5" fill="#DDDDDD"/>
<rect x="70" y="10" width="5" height="5" rx="2.5" fill="#DDDDDD"/>
<rect x="90" y="10" width="5" height="5" rx="2.5" fill="#DDDDDD"/>
<rect x="110" y="10" width="5" height="5" rx="2.5" fill="#DDDDDD"/>
<rect x="130" y="10" width="5" height="5" rx="2.5" fill="#DDDDDD"/>
<rect x="150" y="10" width="5" height="5" rx="2.5" fill="#DDDDDD"/>
<rect x="170" y="10" width="5" height="5" rx="2.5" fill="#DDDDDD"/>
<rect x="10" y="30" width="5" height="5" rx="2.5" fill="#DDDDDD"/>
<rect x="30" y="30" width="5" height="5" rx="2.5" fill="#DDDDDD"/>
<rect x="50" y="30" width="5" height="5" rx="2.5" fill="#DDDDDD"/>
<rect x="70" y="30" width="5" height="5" rx="2.5" fill="#DDDDDD"/>
<rect x="90" y="30" width="5" height="5" rx="2.5" fill="#DDDDDD"/>
<rect x="110" y="30" width="5" height="5" rx="2.5" fill="#DDDDDD"/>
<rect x="130" y="30" width="5" height="5" rx="2.5" fill="#DDDDDD"/>
<rect x="150" y="30" width="5" height="5" rx="2.5" fill="#DDDDDD"/>
<rect x="170" y="30" width="5" height="5" rx="2.5" fill="#DDDDDD"/>
<rect x="10" y="90" width="5" height="5" rx="2.5" fill="#DDDDDD"/>
<rect x="30" y="90" width="5" height="5" rx="2.5" fill="#DDDDDD"/>
<rect x="50" y="90" width="5" height="5" rx="2.5" fill="#DDDDDD"/>
<rect x="70" y="90" width="5" height="5" rx="2.5" fill="#DDDDDD"/>
<rect x="90" y="90" width="5" height="5" rx="2.5" fill="#DDDDDD"/>
<rect x="110" y="90" width="5" height="5" rx="2.5" fill="#DDDDDD"/>
<rect x="130" y="90" width="5" height="5" rx="2.5" fill="#DDDDDD"/>
<rect x="150" y="90" width="5" height="5" rx="2.5" fill="#DDDDDD"/>
<rect x="170" y="90" width="5" height="5" rx="2.5" fill="#DDDDDD"/>
<rect x="10" y="110" width="5" height="5" rx="2.5" fill="#DDDDDD"/>
<rect x="30" y="110" width="5" height="5" rx="2.5" fill="#DDDDDD"/>
<rect x="50" y="110" width="5" height="5" rx="2.5" fill="#DDDDDD"/>
<rect x="70" y="110" width="5" height="5" rx="2.5" fill="#DDDDDD"/>
<rect x="90" y="110" width="5" height="5" rx="2.5" fill="#DDDDDD"/>
<rect x="110" y="110" width="5" height="5" rx="2.5" fill="#DDDDDD"/>
<rect x="130" y="110" width="5" height="5" rx="2.5" fill="#DDDDDD"/>
<rect x="150" y="110" width="5" height="5" rx="2.5" fill="#DDDDDD"/>
<rect x="170" y="110" width="5" height="5" rx="2.5" fill="#DDDDDD"/>
<rect x="10" y="50" width="5" height="5" rx="2.5" fill="#DDDDDD"/>
<rect x="30" y="50" width="5" height="5" rx="2.5" fill="#DDDDDD"/>
<rect x="50" y="50" width="5" height="5" rx="2.5" fill="#DDDDDD"/>
<rect x="70" y="50" width="5" height="5" rx="2.5" fill="#DDDDDD"/>
<rect x="90" y="50" width="5" height="5" rx="2.5" fill="#DDDDDD"/>
<rect x="110" y="50" width="5" height="5" rx="2.5" fill="#DDDDDD"/>
<rect x="130" y="50" width="5" height="5" rx="2.5" fill="#DDDDDD"/>
<rect x="150" y="50" width="5" height="5" rx="2.5" fill="#DDDDDD"/>
<rect x="170" y="50" width="5" height="5" rx="2.5" fill="#DDDDDD"/>
<rect x="10" y="70" width="5" height="5" rx="2.5" fill="#DDDDDD"/>
<rect x="30" y="70" width="5" height="5" rx="2.5" fill="#DDDDDD"/>
<rect x="50" y="70" width="5" height="5" rx="2.5" fill="#DDDDDD"/>
<rect x="70" y="70" width="5" height="5" rx="2.5" fill="#DDDDDD"/>
<rect x="90" y="70" width="5" height="5" rx="2.5" fill="#DDDDDD"/>
<rect x="110" y="70" width="5" height="5" rx="2.5" fill="#DDDDDD"/>
<rect x="130" y="70" width="5" height="5" rx="2.5" fill="#DDDDDD"/>
<rect x="150" y="70" width="5" height="5" rx="2.5" fill="#DDDDDD"/>
<rect x="170" y="70" width="5" height="5" rx="2.5" fill="#DDDDDD"/>
<rect x="10" y="150" width="5" height="5" rx="2.5" fill="#DDDDDD"/>
<rect x="30" y="150" width="5" height="5" rx="2.5" fill="#DDDDDD"/>
<rect x="50" y="150" width="5" height="5" rx="2.5" fill="#DDDDDD"/>
<rect x="70" y="150" width="5" height="5" rx="2.5" fill="#DDDDDD"/>
<rect x="90" y="150" width="5" height="5" rx="2.5" fill="#DDDDDD"/>
<rect x="110" y="150" width="5" height="5" rx="2.5" fill="#DDDDDD"/>
<rect x="130" y="150" width="5" height="5" rx="2.5" fill="#DDDDDD"/>
<rect x="150" y="150" width="5" height="5" rx="2.5" fill="#DDDDDD"/>
<rect x="170" y="150" width="5" height="5" rx="2.5" fill="#DDDDDD"/>
<rect x="10" y="170" width="5" height="5" rx="2.5" fill="#DDDDDD"/>
<rect x="30" y="170" width="5" height="5" rx="2.5" fill="#DDDDDD"/>
<rect x="50" y="170" width="5" height="5" rx="2.5" fill="#DDDDDD"/>
<rect x="70" y="170" width="5" height="5" rx="2.5" fill="#DDDDDD"/>
<rect x="90" y="170" width="5" height="5" rx="2.5" fill="#DDDDDD"/>
<rect x="110" y="170" width="5" height="5" rx="2.5" fill="#DDDDDD"/>
<rect x="130" y="170" width="5" height="5" rx="2.5" fill="#DDDDDD"/>
<rect x="150" y="170" width="5" height="5" rx="2.5" fill="#DDDDDD"/>
<rect x="170" y="170" width="5" height="5" rx="2.5" fill="#DDDDDD"/>
<rect x="10" y="130" width="5" height="5" rx="2.5" fill="#DDDDDD"/>
<rect x="30" y="130" width="5" height="5" rx="2.5" fill="#DDDDDD"/>
<rect x="50" y="130" width="5" height="5" rx="2.5" fill="#DDDDDD"/>
<rect x="70" y="130" width="5" height="5" rx="2.5" fill="#DDDDDD"/>
<rect x="90" y="130" width="5" height="5" rx="2.5" fill="#DDDDDD"/>
<rect x="110" y="130" width="5" height="5" rx="2.5" fill="#DDDDDD"/>
<rect x="130" y="130" width="5" height="5" rx="2.5" fill="#DDDDDD"/>
<rect x="150" y="130" width="5" height="5" rx="2.5" fill="#DDDDDD"/>
<rect x="170" y="130" width="5" height="5" rx="2.5" fill="#DDDDDD"/>
</svg>
